<?xml version="1.0" encoding="UTF-8"?>
<!DOCTYPE svg PUBLIC "-//W3C//DTD SVG 1.1//EN" "http://www.w3.org/Graphics/SVG/1.1/DTD/svg11.dtd">
<svg version="1.1" xmlns="http://www.w3.org/2000/svg" xmlns:xlink="http://www.w3.org/1999/xlink" x="0" y="0" width="382.708" height="76.51" viewBox="0, 0, 382.708, 76.51">
  <g id="Layer_1" transform="translate(-204.323, -16.14)">
    <path d="M245.843,36.46 Q245.843,41.98 243.923,45.86 Q242.003,49.74 238.683,52.14 Q235.363,54.54 230.923,55.66 Q226.483,56.78 221.363,56.78 L221.363,69.5 L204.323,69.5 L204.323,16.14 L221.363,16.14 Q226.483,16.14 230.923,17.26 Q235.363,18.38 238.683,20.78 Q242.003,23.18 243.923,27.06 Q245.843,30.94 245.843,36.46 z M238.083,36.46 Q238.083,32.86 236.843,30.22 Q235.603,27.58 233.363,25.9 Q231.123,24.22 228.043,23.38 Q224.963,22.54 221.363,22.54 L212.323,22.54 L212.323,63.1 L214.403,63.1 L214.403,50.38 L221.363,50.38 Q224.963,50.38 228.043,49.54 Q231.123,48.7 233.363,47.02 Q235.603,45.34 236.843,42.7 Q238.083,40.06 238.083,36.46 z M235.843,36.46 Q235.843,39.9 234.643,42.22 Q233.443,44.54 231.443,45.9 Q229.443,47.26 226.843,47.86 Q224.243,48.46 221.363,48.46 L214.403,48.46 L214.403,24.46 L221.363,24.46 Q224.243,24.46 226.843,25.06 Q229.443,25.66 231.443,27.02 Q233.443,28.38 234.643,30.7 Q235.843,33.02 235.843,36.46 z M221.363,42.38 L222.083,42.38 Q225.443,42.38 226.923,40.82 Q228.403,39.26 228.403,36.46 Q228.403,33.66 226.923,32.1 Q225.443,30.54 222.083,30.54 L221.363,30.54 z" fill="#FFFFFF"/>
    <path d="M266.483,50.94 Q269.603,50.94 272.563,50.3 L280.163,63.1 L282.643,63.1 L274.643,49.66 Q278.963,48.14 281.523,44.98 Q284.083,41.82 284.083,36.78 Q284.083,33.26 282.723,30.62 Q281.363,27.98 279.003,26.18 Q276.643,24.38 273.443,23.46 Q270.243,22.54 266.483,22.54 L257.843,22.54 L257.843,63.1 L259.923,63.1 L259.923,50.94 z M259.923,49.02 L259.923,24.46 L266.483,24.46 Q273.763,24.46 277.883,27.66 Q282.003,30.86 282.003,36.78 Q282.003,42.7 277.883,45.86 Q273.763,49.02 266.483,49.02 z M249.843,16.14 L268.243,16.14 Q273.363,16.14 277.723,17.5 Q282.083,18.86 285.283,21.5 Q288.483,24.14 290.283,28.02 Q292.083,31.9 292.083,36.94 Q292.083,40.94 290.963,43.74 Q289.843,46.54 288.483,48.38 Q286.883,50.46 284.883,51.9 L294.883,69.5 L274.883,69.5 L266.883,55.98 L266.883,69.5 L249.843,69.5 z M266.883,42.38 L267.763,42.38 Q270.803,42.38 272.923,41.02 Q275.043,39.66 275.043,36.46 Q275.043,33.26 272.923,31.9 Q270.803,30.54 267.763,30.54 L266.883,30.54 z" fill="#FFFFFF"/>
    <path d="M296.483,16.14 L327.923,16.14 L327.923,30.14 L313.523,30.14 L313.523,36.06 L327.683,36.06 L327.683,49.34 L313.523,49.34 L313.523,55.5 L328.483,55.5 L328.483,69.5 L296.483,69.5 z M322.563,63.1 L322.563,61.18 L306.563,61.18 L306.563,43.66 L321.763,43.66 L321.763,41.74 L306.563,41.74 L306.563,24.46 L322.563,24.46 L322.563,22.54 L304.483,22.54 L304.483,63.1 z" fill="#FFFFFF"/>
    <path d="M333.283,16.14 L347.363,16.14 L361.283,36.62 L375.123,16.14 L389.203,16.14 L389.203,69.5 L372.163,69.5 L372.163,50.3 L361.283,66.3 L350.323,50.3 L350.323,69.5 L333.283,69.5 z M343.363,63.1 L343.363,26.38 L361.283,52.46 L379.123,26.38 L379.123,63.1 L381.203,63.1 L381.203,22.54 L379.123,22.54 L361.283,48.86 L343.363,22.54 L341.283,22.54 L341.283,63.1 z" fill="#FFFFFF"/>
    <path d="M394.803,16.14 L412.883,16.14 L412.883,69.5 L394.803,69.5 z M404.883,63.1 L404.883,22.54 L402.803,22.54 L402.803,63.1 z" fill="#FFFFFF"/>
    <path d="M418.483,16.14 L449.923,16.14 L449.923,30.14 L435.523,30.14 L435.523,36.06 L449.683,36.06 L449.683,49.34 L435.523,49.34 L435.523,55.5 L450.483,55.5 L450.483,69.5 L418.483,69.5 z M444.563,63.1 L444.563,61.18 L428.563,61.18 L428.563,43.66 L443.763,43.66 L443.763,41.74 L428.563,41.74 L428.563,24.46 L444.563,24.46 L444.563,22.54 L426.483,22.54 L426.483,63.1 z" fill="#FFFFFF"/>
    <path d="M471.923,50.94 Q475.043,50.94 478.003,50.3 L485.603,63.1 L488.083,63.1 L480.083,49.66 Q484.403,48.14 486.963,44.98 Q489.523,41.82 489.523,36.78 Q489.523,33.26 488.163,30.62 Q486.803,27.98 484.443,26.18 Q482.083,24.38 478.883,23.46 Q475.683,22.54 471.923,22.54 L463.283,22.54 L463.283,63.1 L465.363,63.1 L465.363,50.94 z M465.363,49.02 L465.363,24.46 L471.923,24.46 Q479.203,24.46 483.323,27.66 Q487.443,30.86 487.443,36.78 Q487.443,42.7 483.323,45.86 Q479.203,49.02 471.923,49.02 z M455.283,16.14 L473.683,16.14 Q478.803,16.14 483.163,17.5 Q487.523,18.86 490.723,21.5 Q493.923,24.14 495.723,28.02 Q497.523,31.9 497.523,36.94 Q497.523,40.94 496.403,43.74 Q495.283,46.54 493.923,48.38 Q492.323,50.46 490.323,51.9 L500.323,69.5 L480.323,69.5 L472.323,55.98 L472.323,69.5 L455.283,69.5 z M472.323,42.38 L473.203,42.38 Q476.243,42.38 478.363,41.02 Q480.483,39.66 480.483,36.46 Q480.483,33.26 478.363,31.9 Q476.243,30.54 473.203,30.54 L472.323,30.54 z" fill="#FFFFFF"/>
    <path d="M501.923,16.14 L533.363,16.14 L533.363,30.14 L518.963,30.14 L518.963,36.06 L533.123,36.06 L533.123,49.34 L518.963,49.34 L518.963,55.5 L533.923,55.5 L533.923,69.5 L501.923,69.5 z M528.003,63.1 L528.003,61.18 L512.003,61.18 L512.003,43.66 L527.203,43.66 L527.203,41.74 L512.003,41.74 L512.003,24.46 L528.003,24.46 L528.003,22.54 L509.923,22.54 L509.923,63.1 z" fill="#FFFFFF"/>
    <path d="M412.305,84.758 Q412.639,85.549 412.639,86.006 Q412.639,88.291 408.728,90.471 Q404.816,92.65 400.703,92.65 Q396.203,92.65 393.593,90.031 Q390.982,87.412 390.982,82.859 Q390.982,75.67 395.693,70.502 Q400.404,65.334 406.961,65.334 Q409.633,65.334 411.461,66.283 Q413.289,67.232 413.289,68.604 Q413.289,69.834 411.707,71.311 Q409.58,67.057 405.678,67.057 Q401.406,67.057 398.225,71.495 Q395.043,75.934 395.043,81.857 Q395.043,85.637 396.95,87.843 Q398.857,90.049 402.109,90.049 Q407.664,90.049 412.305,84.758 z" fill="#2A00B9"/>
    <path d="M432.168,81.26 Q429.918,85.918 426.622,89.179 Q423.326,92.439 420.883,92.439 Q419.02,92.439 417.903,90.778 Q416.787,89.117 416.787,86.357 Q416.787,80.855 420.118,76.672 Q423.449,72.488 427.826,72.488 Q430.48,72.488 433.574,74.141 Q434.031,72.506 437.301,72.506 Q437.512,72.506 437.986,72.523 Q436.984,74.053 436.457,76.707 L436.158,78.201 Q435.648,80.697 435.648,84.037 Q435.648,87.887 437.441,87.887 Q439.34,87.887 442.636,84.714 Q445.932,81.541 449.113,76.637 L450.484,77.586 Q447.232,83.387 443.049,87.263 Q438.865,91.139 435.859,91.139 Q432.063,91.139 432.063,84.811 Q432.063,83.492 432.168,81.26 z M432.994,77.059 Q429.303,74.65 426.859,74.65 Q424.205,74.65 422.272,77.876 Q420.338,81.102 420.338,85.531 Q420.338,89.082 422.658,89.082 Q425.172,89.082 432.273,78.043 Q432.361,77.902 432.994,77.059 z" fill="#2A00B9"/>
    <path d="M465.092,77.674 Q461.453,84.582 457.779,88.511 Q454.105,92.439 451.275,92.439 Q449.219,92.439 447.953,90.849 Q446.688,89.258 446.688,86.691 Q446.688,85.25 447.215,82.613 L450.713,65 Q450.027,65.105 449.518,65.105 Q445.475,65.105 445.475,61.73 L445.475,61.326 Q447.584,62.521 450.238,62.521 Q452.893,62.521 454.879,61.203 L450.801,82.35 Q450.256,85.197 450.256,86.27 Q450.256,89.24 452.436,89.24 Q454.545,89.24 456.681,86.858 Q458.816,84.477 463.686,76.707 z" fill="#2A00B9"/>
    <path d="M463.773,84.688 Q463.773,89.838 468.133,89.838 Q471.912,89.838 476.465,86.234 Q481.018,82.631 484.674,76.742 L486.168,77.568 Q482.723,84.002 477.212,88.221 Q471.701,92.439 466.762,92.439 Q463.598,92.439 461.761,90.4 Q459.924,88.361 459.924,84.828 Q459.924,79.73 463.255,76.109 Q466.586,72.488 471.279,72.488 Q473.547,72.488 474.909,73.631 Q476.272,74.773 476.272,76.689 Q476.272,79.836 472.483,82.262 Q468.695,84.688 463.773,84.688 z M463.914,83 Q467.588,82.807 470.216,80.891 Q472.844,78.975 472.844,76.461 Q472.844,74.211 470.84,74.211 Q468.449,74.211 466.428,76.777 Q464.406,79.344 463.914,83 z" fill="#2A00B9"/>
    <path d="M487.117,85.689 Q493.357,72.488 498.332,72.488 Q502.217,72.488 502.217,80.223 L502.252,82.35 Q502.252,86.041 502.63,87.456 Q503.008,88.871 504.01,88.871 Q505.522,88.871 507.446,86.463 Q509.371,84.055 513.713,76.777 L515.189,77.639 Q511.322,84.934 508.264,88.467 Q505.205,92 502.779,92 Q500.547,92 499.642,89.838 Q498.736,87.676 498.736,82.35 L498.719,80.838 Q498.719,77.955 498.35,76.786 Q497.98,75.617 497.066,75.617 Q494.746,75.617 489.596,84.881 Q488.33,87.148 487.961,87.799 Q486.607,90.154 486.607,91.209 Q486.607,91.631 486.836,92.018 Q485.816,92.439 485.113,92.439 Q483.338,92.439 483.338,90.471 Q483.338,89.908 483.795,85.408 L484.182,81.594 Q484.445,79.168 484.445,77.832 Q484.445,75.969 483.602,74.896 Q483.971,74.773 484.832,74.475 Q485.922,74.088 486.572,74.088 Q487.943,74.088 487.943,76.092 Q487.943,77.146 487.68,79.713 Q487.627,80.275 487.574,80.785 z" fill="#2A00B9"/>
    <path d="M525.191,81.717 Q522.449,86.656 519.452,89.548 Q516.455,92.439 514.1,92.439 Q512.219,92.439 511.111,90.796 Q510.004,89.152 510.004,86.393 Q510.004,80.838 513.309,76.663 Q516.613,72.488 520.99,72.488 Q523.609,72.488 526.703,74.158 L528.584,64.684 Q527.037,65 526.018,65 Q524.471,65 523.75,64.271 Q523.029,63.541 522.59,61.537 Q523.856,62.398 526.475,62.398 Q529.727,62.398 532.75,61.203 L528.918,80.469 Q528.268,83.703 528.268,85.971 Q528.268,88.994 529.99,88.994 Q531.678,88.994 535.607,85.039 Q539.535,81.084 542.154,76.76 L543.596,77.674 Q540.467,83.404 535.782,87.922 Q531.098,92.439 528.303,92.439 Q524.752,92.439 524.752,86.744 Q524.752,84.389 525.191,81.717 z M526.123,77.059 Q522.467,74.65 520.041,74.65 Q517.404,74.65 515.48,77.885 Q513.555,81.119 513.555,85.531 Q513.555,89.082 515.875,89.082 Q518.371,89.082 525.473,78.043 Q525.596,77.85 526.123,77.059 z" fill="#2A00B9"/>
    <path d="M553.773,81.26 Q551.523,85.918 548.228,89.179 Q544.932,92.439 542.488,92.439 Q540.625,92.439 539.509,90.778 Q538.393,89.117 538.393,86.357 Q538.393,80.855 541.724,76.672 Q545.055,72.488 549.432,72.488 Q552.086,72.488 555.18,74.141 Q555.637,72.506 558.906,72.506 Q559.117,72.506 559.592,72.523 Q558.59,74.053 558.063,76.707 L557.764,78.201 Q557.254,80.697 557.254,84.037 Q557.254,87.887 559.047,87.887 Q560.945,87.887 564.241,84.714 Q567.537,81.541 570.719,76.637 L572.09,77.586 Q568.838,83.387 564.654,87.263 Q560.471,91.139 557.465,91.139 Q553.668,91.139 553.668,84.811 Q553.668,83.492 553.773,81.26 z M554.6,77.059 Q550.908,74.65 548.465,74.65 Q545.811,74.65 543.877,77.876 Q541.943,81.102 541.943,85.531 Q541.943,89.082 544.264,89.082 Q546.777,89.082 553.879,78.043 Q553.967,77.902 554.6,77.059 z" fill="#2A00B9"/>
    <path d="M571.475,91.877 Q570.279,92.439 569.559,92.439 Q567.766,92.439 567.766,90.857 Q567.766,90.049 568.398,86.832 L569.277,82.455 Q570.086,78.553 570.086,76.672 Q570.086,75.652 569.506,74.967 Q571.352,74.334 572.512,74.334 Q573.742,74.334 573.742,75.898 Q573.742,76.865 572.863,80.979 L571.861,86.094 Q575.184,79.643 578.55,76.065 Q581.916,72.488 584.658,72.488 Q585.625,72.488 586.328,73.042 Q587.031,73.596 587.031,74.387 Q587.031,75.617 584.359,77.656 Q583.691,76.268 582.461,76.268 Q580.229,76.268 576.766,81.014 Q574.621,83.967 573.039,87.104 Q571.457,90.242 571.457,91.578 z" fill="#2A00B9"/>
  </g>
</svg>
